# xmcd
#
# Track frame offsets: 
#        150
#        28057
#        48362
#        71297
#        97332
#        118647
#        145167
#        174612
#        192782
#        210077
#        225912
#        247187
#        264302
#        281852
#        300607
#        320287
#
# Disc length: 4640 seconds
#
# Revision: 7
# Processed by: cddbd v1.5.2PL0 Copyright (c) Steve Scherf et al.
# Submitted via: ExactAudioCopyFreeDBPlugin 1.0
#
DISCID=df121e10
DTITLE=Gerry Rafferty - Baker Street
DYEAR=1998
DGENRE=Rock
TTITLE0=Baker Street
TTITLE1=Right Down The Line
TTITLE2=City To City
TTITLE3=Waiting For The Day
TTITLE4=Get It Right Next Time
TTITLE5=Take The Money And Run
TTITLE6=Days Gone Down (Still Got The Light In Your Eyes)
TTITLE7=Why Won't You Talk To Me
TTITLE8=The Royal Mile
TTITLE9=Wastin' Away
TTITLE10=Bring It All Home
TTITLE11=Don't Close The Door
TTITLE12=Sleepwalking
TTITLE13=A Change Of Heart
TTITLE14=On The Way
TTITLE15=Night Owl
EXTD=
EXTT0=
EXTT1=
EXTT2=
EXTT3=
EXTT4=
EXTT5=
EXTT6=
EXTT7=
EXTT8=
EXTT9=
EXTT10=
EXTT11=
EXTT12=
EXTT13=
EXTT14=
EXTT15=
PLAYORDER=
